<?xml version="1.0" encoding="UTF-8" standalone="no"?>
<svg width="55px" height="38px" viewBox="0 0 55 38" version="1.1" xmlns="http://www.w3.org/2000/svg" xmlns:xlink="http://www.w3.org/1999/xlink" xmlns:sketch="http://www.bohemiancoding.com/sketch/ns">
    <!-- Generator: Sketch Beta 3.0.4 (7942) - http://www.bohemiancoding.com/sketch -->
    <title>Cloudy</title>
    <desc>Created with Sketch Beta.</desc>
    <defs></defs>
    <g id="Page-1" stroke="none" stroke-width="1" fill="none" fill-rule="evenodd" sketch:type="MSPage">
        <g id="Desktop-HD" sketch:type="MSArtboardGroup" transform="translate(-1021.000000, -733.000000)">
            <g id="Cloudy" sketch:type="MSLayerGroup" transform="translate(1022.000000, 734.000000)">
                <path d="M44.8154235,35 C48.681417,35 51.8154235,31.8659934 51.8154235,28 C51.8154235,24.1340066 48.681417,21 44.8154235,21 C41.2889514,21 38.371542,23.6077057 37.8863124,27 L37.8154235,27 C37.8154235,23.1850174 40.8672709,20.0828323 44.662779,20.0016314 C43.701457,13.7706523 38.3155634,9 31.8154235,9 C26.7242313,9 22.3165961,11.9266538 20.1831183,16.1893611 C22.2796828,16.7842712 23.8154235,18.7127897 23.8154235,21 C23.8154235,21.3261971 23.7841868,21.6450985 23.7245413,21.9538761 C23.2295948,19.1388894 20.7722915,17 17.8154235,17 C15.1999807,17 12.9753952,18.6734584 12.1539981,21.0080444 C12.0418115,21.0027017 11.928933,21 11.8154235,21 C7.94943007,21 4.81542351,24.1340066 4.81542351,28 C4.81542351,31.8659934 7.94943007,35 11.8154235,35 L44.8154235,35 Z" id="Cloud" stroke="#FFFFFF" stroke-width="2" sketch:type="MSShapeGroup"></path>
                <g id="Sun" transform="translate(-0.176991, -0.500000)" fill="#FFFFFF" sketch:type="MSShapeGroup">
                    <path d="M25.0317372,9.78442415 C23.2377227,8.35455811 20.9648651,7.5 18.4924147,7.5 C12.6934245,7.5 7.99241466,12.2010098 7.99241466,18 C7.99241466,18.9055536 8.10704902,19.784333 8.32259775,20.6226181 L9.93931732,20.25 L10.2792764,20.1977646 C10.0921609,19.4967247 9.99241466,18.7600108 9.99241466,18 C9.99241466,13.3055794 13.7979941,9.5 18.4924147,9.5 C20.2600792,9.5 21.9017179,10.0395808 23.2616082,10.9630201 L25.0317372,9.78442415 Z" id="Oval-16"></path>
                    <path d="M18.9924147,-0.5 C18.4401299,-0.5 17.9924147,-0.0562833548 17.9924147,0.499807492 L17.9924147,3.50019251 C17.9924147,4.05237094 18.4362795,4.5 18.9924147,4.5 C19.5446994,4.5 19.9924147,4.05628335 19.9924147,3.50019251 L19.9924147,0.499807492 C19.9924147,-0.0523709386 19.5485498,-0.5 18.9924147,-0.5 Z M28.5025194,2.0482249 C28.0242268,1.77208252 27.4146357,1.93249478 27.1365903,2.41408358 L25.6363978,5.01249323 C25.3603086,5.49069378 25.5208923,6.10028433 26.0025194,6.37835192 C26.4808121,6.65449429 27.0904032,6.49408203 27.3684486,6.01249323 L28.8686411,3.41408358 C29.1447303,2.93588304 28.9841466,2.32629249 28.5025194,2.0482249 Z M-0.0277949019,18.5202096 C-0.0277949019,19.0724943 0.415921743,19.5202096 0.97201259,19.5202096 L3.97239761,19.5202096 C4.52457604,19.5202096 4.9722051,19.0763447 4.9722051,18.5202096 C4.9722051,17.9679248 4.52848845,17.5202096 3.97239761,17.5202096 L0.97201259,17.5202096 C0.41983416,17.5202096 -0.0277949019,17.9640744 -0.0277949019,18.5202096 Z M2.52042999,9.01010478 C2.24428762,9.48839741 2.40469988,10.0979885 2.88628868,10.3760339 L5.48469833,11.8762264 C5.96289888,12.1523157 6.57248942,11.991732 6.85055701,11.5101048 C7.12669939,11.0318122 6.96628713,10.4222211 6.48469833,10.1441756 L3.88628868,8.64398313 C3.40808813,8.36789391 2.79849758,8.52847759 2.52042999,9.01010478 Z M9.48230988,2.0482249 C9.00401726,2.32436727 8.8381428,2.93249478 9.11618822,3.41408358 L10.6163807,6.01249323 C10.8924699,6.49069378 11.5006827,6.6564195 11.9823099,6.37835192 C12.4606025,6.10220954 12.626477,5.49408203 12.3484315,5.01249323 L10.848239,2.41408358 C10.5721498,1.93588304 9.96393707,1.77015731 9.48230988,2.0482249 Z" id="Rectangle-69"></path>
                </g>
            </g>
        </g>
    </g>
</svg>