<?xml version="1.0" encoding="UTF-8" standalone="no"?>
<svg width="52px" height="42px" viewBox="0 0 52 42" version="1.1" xmlns="http://www.w3.org/2000/svg" xmlns:xlink="http://www.w3.org/1999/xlink" xmlns:sketch="http://www.bohemiancoding.com/sketch/ns">
    <!-- Generator: Sketch Beta 3.0.4 (7942) - http://www.bohemiancoding.com/sketch -->
    <title>Rainy</title>
    <desc>Created with Sketch Beta.</desc>
    <defs></defs>
    <g id="Page-1" stroke="none" stroke-width="1" fill="none" fill-rule="evenodd" sketch:type="MSPage">
        <g id="Desktop-HD" sketch:type="MSArtboardGroup" transform="translate(-718.000000, -729.000000)">
            <g id="Rainy" sketch:type="MSLayerGroup" transform="translate(721.000000, 732.000000)">
                <path d="M39.6586599,25.5 C43.5246534,25.5 46.6586599,22.3659934 46.6586599,18.5 C46.6586599,14.6340066 43.5246534,11.5 39.6586599,11.5 C36.1321878,11.5 33.2147784,14.1077057 32.7295488,17.5 L32.6586599,17.5 C32.6586599,13.6850174 35.7105073,10.5828323 39.5060154,10.5016314 C38.5446934,4.2706523 33.1587998,-0.5 26.6586599,-0.5 C21.5674677,-0.5 17.1598325,2.42665381 15.0263547,6.68936105 C17.1229192,7.28427116 18.6586599,9.21278975 18.6586599,11.5 C18.6586599,11.8261971 18.6274232,12.1450985 18.5677777,12.4538761 C18.0728312,9.6388894 15.6155279,7.5 12.6586599,7.5 C10.0432171,7.5 7.81863164,9.17345844 6.9972345,11.5080444 C6.88504786,11.5027017 6.7721694,11.5 6.65865992,11.5 C2.79266648,11.5 -0.341340076,14.6340066 -0.341340076,18.5 C-0.341340076,22.3659934 2.79266648,25.5 6.65865992,25.5 L39.6586599,25.5 Z" id="Cloud" stroke="#FFFFFF" stroke-width="2" sketch:type="MSShapeGroup"></path>
                <g id="Drops" transform="translate(8.260430, 30.250000)" fill="#FFFFFF" sketch:type="MSShapeGroup">
                    <path d="M6.79689838,6.15283811 C6.93942603,6.68475849 6.59672553,7.09829006 6.17359873,7.21166655 C5.75047193,7.32504305 5.22910289,7.07177442 5.10439119,6.60634407 C4.9796795,6.14091371 5.44982851,5.16318412 5.44982851,5.16318412 C5.50995314,5.02711548 5.66074802,4.98529505 5.79478792,5.08005088 C5.79478792,5.08005088 6.65437072,5.62091773 6.79689838,6.15283811 Z M19.5630172,6.15283811 C19.7055449,6.68475849 19.3628444,7.09829006 18.9397176,7.21166655 C18.5165908,7.32504305 17.9952217,7.07177442 17.87051,6.60634407 C17.7457983,6.14091371 18.2159473,5.16318412 18.2159473,5.16318412 C18.276072,5.02711548 18.4268669,4.98529505 18.5609068,5.08005088 C18.5609068,5.08005088 19.4204896,5.62091773 19.5630172,6.15283811 Z M26.5969714,6.57209775 C26.8186811,7.39952945 26.3393218,8.02840378 25.7348549,8.1903702 C25.1303881,8.35233661 24.3731,7.94396618 24.179104,7.21996341 C23.985108,6.49596063 24.6225002,5.01758896 24.6225002,5.01758896 C24.708566,4.79833437 24.9271701,4.72978289 25.122804,4.88063006 C25.122804,4.88063006 26.3752617,5.74466606 26.5969714,6.57209775 Z M13.3302205,6.57209775 C13.5519301,7.39952945 13.0725709,8.02840378 12.468104,8.1903702 C11.8636371,8.35233661 11.106349,7.94396618 10.912353,7.21996341 C10.7183571,6.49596063 11.3557493,5.01758896 11.3557493,5.01758896 C11.4418151,4.79833437 11.6604192,4.72978289 11.8560531,4.88063006 C11.8560531,4.88063006 13.1085108,5.74466606 13.3302205,6.57209775 Z M9.30005894,2.15283811 C9.44258659,2.68475849 9.09988609,3.09829006 8.67675929,3.21166655 C8.25363249,3.32504305 7.73226344,3.07177442 7.60755174,2.60634407 C7.48284005,2.14091371 7.95298906,1.16318412 7.95298906,1.16318412 C8.0131137,1.02711548 8.16390857,0.985295046 8.29794848,1.08005088 C8.29794848,1.08005088 9.15753127,1.62091773 9.30005894,2.15283811 Z M22.0661778,2.15283811 C22.2087054,2.68475849 21.8660049,3.09829006 21.4428781,3.21166655 C21.0197513,3.32504305 20.4983823,3.07177442 20.3736706,2.60634407 C20.2489589,2.14091371 20.7191079,1.16318412 20.7191079,1.16318412 C20.7792325,1.02711548 20.9300274,0.985295046 21.0640673,1.08005088 C21.0640673,1.08005088 21.9236501,1.62091773 22.0661778,2.15283811 Z M16.5843292,2.07209775 C16.8060389,2.89952945 16.3266796,3.52840378 15.7222127,3.6903702 C15.1177459,3.85233661 14.3604577,3.44396618 14.1664618,2.71996341 C13.9724658,1.99596063 14.609858,0.517588956 14.609858,0.517588956 C14.6959238,0.298334369 14.9145279,0.229782889 15.1101618,0.380630062 C15.1101618,0.380630062 16.3626195,1.24466606 16.5843292,2.07209775 Z M3.06726217,2.07209775 C3.28897185,2.89952945 2.80961257,3.52840378 2.20514572,3.6903702 C1.60067886,3.85233661 0.843390732,3.44396618 0.649394754,2.71996341 C0.455398795,1.99596063 1.09279099,0.517588956 1.09279099,0.517588956 C1.17885679,0.298334369 1.3974609,0.229782889 1.59309479,0.380630062 C1.59309479,0.380630062 2.84555248,1.24466606 3.06726217,2.07209775 Z M29.8510801,2.07209775 C30.0727898,2.89952945 29.5934305,3.52840378 28.9889637,3.6903702 C28.3844968,3.85233661 27.6272087,3.44396618 27.4332127,2.71996341 C27.2392167,1.99596063 27.8766089,0.517588956 27.8766089,0.517588956 C27.9626747,0.298334369 28.1812789,0.229782889 28.3769127,0.380630062 C28.3769127,0.380630062 29.6293704,1.24466606 29.8510801,2.07209775 Z" id="Drops_2"></path>
                </g>
            </g>
        </g>
    </g>
</svg>