<?xml version="1.0" encoding="UTF-8" standalone="no"?>
<svg width="50px" height="50px" viewBox="0 0 50 50" version="1.1" xmlns="http://www.w3.org/2000/svg" xmlns:xlink="http://www.w3.org/1999/xlink" xmlns:sketch="http://www.bohemiancoding.com/sketch/ns">
    <!-- Generator: Sketch Beta 3.0.4 (7942) - http://www.bohemiancoding.com/sketch -->
    <title>Sunny</title>
    <desc>Created with Sketch Beta.</desc>
    <defs></defs>
    <g id="Page-1" stroke="none" stroke-width="1" fill="none" fill-rule="evenodd" sketch:type="MSPage">
        <g id="Desktop-HD" sketch:type="MSArtboardGroup" transform="translate(-406.000000, -726.000000)">
            <g id="Sunny" sketch:type="MSLayerGroup" transform="translate(407.000000, 727.000000)">
                <path d="M24.4902189,36.8205128 C31.6117858,36.8205128 37.3849558,31.0805741 37.3849558,24 C37.3849558,16.9194259 31.6117858,11.1794872 24.4902189,11.1794872 C17.368652,11.1794872 11.5954821,16.9194259 11.5954821,24 C11.5954821,31.0805741 17.368652,36.8205128 24.4902189,36.8205128 Z" id="Oval-16" stroke="#FFFFFF" stroke-width="2" sketch:type="MSShapeGroup"></path>
                <path d="M24.2052182,-0.358974359 C23.6504631,-0.358974359 23.2007452,0.0816285243 23.2007452,0.642628205 L23.2007452,5.04967949 C23.2007452,5.60284931 23.6499636,6.05128205 24.2052182,6.05128205 L24.7752196,6.05128205 C25.3299747,6.05128205 25.7796926,5.61067917 25.7796926,5.04967949 L25.7796926,0.642628205 C25.7796926,0.0894583836 25.3304742,-0.358974359 24.7752196,-0.358974359 L24.2052182,-0.358974359 Z M36.4971529,2.7654803 C36.0167209,2.48810274 35.4069524,2.64481708 35.1264525,3.13065706 L32.9229269,6.94727543 C32.646342,7.42633454 32.8111601,8.03929786 33.2920247,8.31692519 L33.7856604,8.60192587 C34.2660924,8.87930343 34.875861,8.72258908 35.1563608,8.23674911 L37.3598864,4.42013074 C37.6364714,3.94107163 37.4716532,3.3281083 36.9907886,3.05048098 L36.4971529,2.7654803 Z M45.5718394,11.5866498 C45.2944618,11.1062178 44.6880296,10.9370521 44.2021896,11.217552 L40.3855712,13.4210776 C39.9065121,13.6976625 39.7427671,14.3109134 40.0203945,14.791778 L40.3053951,15.2854137 C40.5827727,15.7658457 41.1892049,15.9350114 41.6750449,15.6545116 L45.4916633,13.4509859 C45.9707224,13.174401 46.1344674,12.5611501 45.85684,12.0802855 L45.5718394,11.5866498 Z M48.9977226,23.740909 C48.9977226,23.1861539 48.5571197,22.736436 47.99612,22.736436 L43.5890688,22.736436 C43.0358989,22.736436 42.5874662,23.1856544 42.5874662,23.740909 L42.5874662,24.3109104 C42.5874662,24.8656655 43.0280691,25.3153834 43.5890688,25.3153834 L47.99612,25.3153834 C48.5492899,25.3153834 48.9977226,24.866165 48.9977226,24.3109104 L48.9977226,23.740909 Z M45.85684,35.9715339 C46.1342176,35.4911019 45.9775032,34.8813333 45.4916633,34.6008335 L41.6750449,32.3973078 C41.1959858,32.1207229 40.5830225,32.2855411 40.3053951,32.7664057 L40.0203945,33.2600414 C39.7430169,33.7404734 39.8997312,34.3502419 40.3855712,34.6307418 L44.2021896,36.8342674 C44.6812487,37.1108523 45.294212,36.9460342 45.5718394,36.4651696 L45.85684,35.9715339 Z M36.9907886,45.0013384 C37.4712206,44.7239609 37.6403863,44.1175286 37.3598864,43.6316887 L35.1563608,39.8150703 C34.8797759,39.3360112 34.266525,39.1722662 33.7856604,39.4498935 L33.2920247,39.7348942 C32.8115927,40.0122718 32.642427,40.618704 32.9229269,41.104544 L35.1264525,44.9211623 C35.4030374,45.4002215 36.0162883,45.5639664 36.4971529,45.2863391 L36.9907886,45.0013384 Z M24.7752196,48.4107938 C25.3299747,48.4107938 25.7796926,47.9701909 25.7796926,47.4091912 L25.7796926,43.0021399 C25.7796926,42.4489701 25.3304742,42.0005374 24.7752196,42.0005374 L24.2052182,42.0005374 C23.6504631,42.0005374 23.2007452,42.4411402 23.2007452,43.0021399 L23.2007452,47.4091912 C23.2007452,47.962361 23.6499636,48.4107938 24.2052182,48.4107938 L24.7752196,48.4107938 Z M12.4832849,45.2863391 C12.9637169,45.5637167 13.5734855,45.4070023 13.8539853,44.9211623 L16.057511,41.104544 C16.3340959,40.6254849 16.1692777,40.0125215 15.6884131,39.7348942 L15.1947774,39.4498935 C14.7143454,39.172516 14.1045769,39.3292303 13.824077,39.8150703 L11.6205514,43.6316887 C11.3439665,44.1107478 11.5087846,44.7237111 11.9896492,45.0013384 L12.4832849,45.2863391 Z M3.40859846,36.4651696 C3.68597602,36.9456016 4.29240826,37.1147673 4.77824823,36.8342674 L8.5948666,34.6307418 C9.07392571,34.3541569 9.23767069,33.740906 8.96004336,33.2600414 L8.67504268,32.7664057 C8.39766512,32.2859737 7.79123289,32.116808 7.30539291,32.3973078 L3.48877455,34.6008335 C3.00971543,34.8774184 2.84597046,35.4906693 3.12359778,35.9715339 L3.40859846,36.4651696 Z M-0.0172847891,24.3109104 C-0.0172847891,24.8656655 0.423318094,25.3153834 0.984317775,25.3153834 L5.39136906,25.3153834 C5.94453888,25.3153834 6.39297162,24.866165 6.39297162,24.3109104 L6.39297162,23.740909 C6.39297162,23.1861539 5.95236874,22.736436 5.39136906,22.736436 L0.984317775,22.736436 C0.431147953,22.736436 -0.0172847891,23.1856544 -0.0172847891,23.740909 L-0.0172847891,24.3109104 Z M3.12359778,12.0802855 C2.84622022,12.5607175 3.00293457,13.1704861 3.48877455,13.4509859 L7.30539291,15.6545116 C7.78445203,15.9310965 8.39741535,15.7662783 8.67504268,15.2854137 L8.96004336,14.791778 C9.23742092,14.311346 9.08070657,13.7015775 8.5948666,13.4210776 L4.77824823,11.217552 C4.29918911,10.9409671 3.68622579,11.1057852 3.40859846,11.5866498 L3.12359778,12.0802855 Z M11.9896492,3.05048098 C11.5092172,3.32785854 11.3400515,3.93429077 11.6205514,4.42013074 L13.824077,8.23674911 C14.1006619,8.71580823 14.7139128,8.8795532 15.1947774,8.60192587 L15.6884131,8.31692519 C16.1688451,8.03954763 16.3380108,7.4331154 16.057511,6.94727543 L13.8539853,3.13065706 C13.5774004,2.65159794 12.9641495,2.48785297 12.4832849,2.7654803 L11.9896492,3.05048098 Z" id="Aura" fill="#FFFFFF" sketch:type="MSShapeGroup"></path>
            </g>
        </g>
    </g>
</svg>